<svg width="28" height="28" viewBox="0 0 28 28" fill="none" xmlns="http://www.w3.org/2000/svg">
<path fill-rule="evenodd" clip-rule="evenodd" d="M14 28C21.732 28 28 21.732 28 14C28 6.26802 21.732 0 14 0C6.26802 0 0 6.26802 0 14C0 21.732 6.26802 28 14 28Z" fill="#25292E"/>
<path fill-rule="evenodd" clip-rule="evenodd" d="M14 28C21.732 28 28 21.732 28 14C28 6.26802 21.732 0 14 0C6.26802 0 0 6.26802 0 14C0 21.732 6.26802 28 14 28Z" fill="url(#paint0_linear_18573_15748)" fill-opacity="0.3"/>
<path d="M8.18994 14.7708L13.9999 18.2081L19.8088 14.7708L13.9999 22.9591L8.18994 14.7708Z" fill="url(#paint1_linear_18573_15748)"/>
<path d="M13.9999 16.9279L8.18994 13.4906L13.9999 4.34009L19.8099 13.4906L13.9999 16.9279Z" fill="white"/>
<defs>
<linearGradient id="paint0_linear_18573_15748" x1="0" y1="0" x2="14" y2="28" gradientUnits="userSpaceOnUse">
<stop stop-color="white"/>
<stop offset="1" stop-color="white" stop-opacity="0"/>
</linearGradient>
<linearGradient id="paint1_linear_18573_15748" x1="13.9994" y1="14.7708" x2="13.9994" y2="22.9591" gradientUnits="userSpaceOnUse">
<stop stop-color="white"/>
<stop offset="1" stop-color="white" stop-opacity="0.9"/>
</linearGradient>
</defs>
</svg>
